<mxfile host="app.diagrams.net" modified="2024-04-04T03:27:59.756Z" agent="Mozilla/5.0 (Windows NT 10.0; Win64; x64) AppleWebKit/537.36 (KHTML, like Gecko) Chrome/123.0.0.0 Safari/537.36" etag="UyUsDV9uoYYmqYsNkIZg" version="24.2.2" type="device">
  <diagram name="Page-1" id="SQ80aeI0fKcRUwAN869X">
    <mxGraphModel dx="1239" dy="860" grid="1" gridSize="10" guides="1" tooltips="1" connect="1" arrows="1" fold="1" page="1" pageScale="1" pageWidth="827" pageHeight="1169" background="#ffffff" math="0" shadow="0">
      <root>
        <mxCell id="0" />
        <mxCell id="1" parent="0" />
        <mxCell id="PwT-5W6LIvjpv7Y9TLPe-1" value="Ingress" style="shape=cylinder3;whiteSpace=wrap;html=1;boundedLbl=1;backgroundOutline=1;size=15;" parent="1" vertex="1">
          <mxGeometry x="170" y="70" width="60" height="80" as="geometry" />
        </mxCell>
        <mxCell id="PwT-5W6LIvjpv7Y9TLPe-6" style="edgeStyle=orthogonalEdgeStyle;rounded=0;orthogonalLoop=1;jettySize=auto;html=1;" parent="1" source="PwT-5W6LIvjpv7Y9TLPe-2" target="PwT-5W6LIvjpv7Y9TLPe-4" edge="1">
          <mxGeometry relative="1" as="geometry" />
        </mxCell>
        <mxCell id="PwT-5W6LIvjpv7Y9TLPe-2" value="&lt;div&gt;&lt;br&gt;&lt;/div&gt;&lt;div&gt;&lt;br&gt;&lt;/div&gt;&lt;div&gt;&lt;br&gt;&lt;/div&gt;&lt;div&gt;&lt;br&gt;&lt;/div&gt;&lt;div&gt;&lt;br&gt;&lt;/div&gt;&lt;div&gt;API&lt;/div&gt;&lt;div&gt;python(&lt;span style=&quot;background-color: initial;&quot;&gt;Postgrest)&lt;/span&gt;&lt;/div&gt;" style="aspect=fixed;sketch=0;html=1;dashed=0;whitespace=wrap;fillColor=#2875E2;strokeColor=#ffffff;points=[[0.005,0.63,0],[0.1,0.2,0],[0.9,0.2,0],[0.5,0,0],[0.995,0.63,0],[0.72,0.99,0],[0.5,1,0],[0.28,0.99,0]];shape=mxgraph.kubernetes.icon2;prIcon=api" parent="1" vertex="1">
          <mxGeometry x="310" y="80" width="50" height="48" as="geometry" />
        </mxCell>
        <mxCell id="PwT-5W6LIvjpv7Y9TLPe-3" value="Sends Data to" style="edgeStyle=orthogonalEdgeStyle;rounded=0;orthogonalLoop=1;jettySize=auto;html=1;exitX=1;exitY=0.5;exitDx=0;exitDy=0;exitPerimeter=0;entryX=0.005;entryY=0.63;entryDx=0;entryDy=0;entryPerimeter=0;" parent="1" source="PwT-5W6LIvjpv7Y9TLPe-1" target="PwT-5W6LIvjpv7Y9TLPe-2" edge="1">
          <mxGeometry relative="1" as="geometry" />
        </mxCell>
        <mxCell id="PwT-5W6LIvjpv7Y9TLPe-4" value="Data Processing&lt;div&gt;(Wrangling)&lt;/div&gt;" style="whiteSpace=wrap;html=1;aspect=fixed;" parent="1" vertex="1">
          <mxGeometry x="400" y="120" width="80" height="80" as="geometry" />
        </mxCell>
        <mxCell id="PwT-5W6LIvjpv7Y9TLPe-7" value="Data Warehouse" style="shape=cylinder3;whiteSpace=wrap;html=1;boundedLbl=1;backgroundOutline=1;size=15;" parent="1" vertex="1">
          <mxGeometry x="420" y="270" width="60" height="80" as="geometry" />
        </mxCell>
        <mxCell id="PwT-5W6LIvjpv7Y9TLPe-8" style="edgeStyle=orthogonalEdgeStyle;rounded=0;orthogonalLoop=1;jettySize=auto;html=1;entryX=0.333;entryY=0.004;entryDx=0;entryDy=0;entryPerimeter=0;" parent="1" source="PwT-5W6LIvjpv7Y9TLPe-4" target="PwT-5W6LIvjpv7Y9TLPe-7" edge="1">
          <mxGeometry relative="1" as="geometry" />
        </mxCell>
        <mxCell id="PwT-5W6LIvjpv7Y9TLPe-9" value="Subset (ie spacial)" style="shape=cylinder3;whiteSpace=wrap;html=1;boundedLbl=1;backgroundOutline=1;size=15;" parent="1" vertex="1">
          <mxGeometry x="620" y="270" width="60" height="80" as="geometry" />
        </mxCell>
        <mxCell id="PwT-5W6LIvjpv7Y9TLPe-10" value="Pulls data from&lt;div&gt;warehouse&lt;/div&gt;&lt;div&gt;(postgrest api)&lt;/div&gt;" style="edgeStyle=orthogonalEdgeStyle;rounded=0;orthogonalLoop=1;jettySize=auto;html=1;entryX=0;entryY=0.5;entryDx=0;entryDy=0;entryPerimeter=0;" parent="1" source="PwT-5W6LIvjpv7Y9TLPe-7" target="PwT-5W6LIvjpv7Y9TLPe-9" edge="1">
          <mxGeometry relative="1" as="geometry">
            <mxPoint as="offset" />
          </mxGeometry>
        </mxCell>
        <mxCell id="PwT-5W6LIvjpv7Y9TLPe-11" value="&lt;div&gt;&lt;br&gt;&lt;/div&gt;&lt;div&gt;&lt;br&gt;&lt;/div&gt;&lt;div&gt;&lt;br&gt;&lt;/div&gt;&lt;div&gt;&lt;br&gt;&lt;/div&gt;&lt;div&gt;&lt;br&gt;&lt;/div&gt;&lt;div&gt;API&lt;/div&gt;&lt;div&gt;Web frontend&lt;/div&gt;&lt;div&gt;curl or requests could be used here&lt;/div&gt;" style="aspect=fixed;sketch=0;html=1;dashed=0;whitespace=wrap;fillColor=#2875E2;strokeColor=#ffffff;points=[[0.005,0.63,0],[0.1,0.2,0],[0.9,0.2,0],[0.5,0,0],[0.995,0.63,0],[0.72,0.99,0],[0.5,1,0],[0.28,0.99,0]];shape=mxgraph.kubernetes.icon2;prIcon=api" parent="1" vertex="1">
          <mxGeometry x="625" y="430" width="50" height="48" as="geometry" />
        </mxCell>
        <mxCell id="PwT-5W6LIvjpv7Y9TLPe-12" value="Requests spacial dataset" style="edgeStyle=orthogonalEdgeStyle;rounded=0;orthogonalLoop=1;jettySize=auto;html=1;entryX=0.5;entryY=0;entryDx=0;entryDy=0;entryPerimeter=0;" parent="1" source="PwT-5W6LIvjpv7Y9TLPe-9" target="PwT-5W6LIvjpv7Y9TLPe-11" edge="1">
          <mxGeometry relative="1" as="geometry">
            <mxPoint as="offset" />
          </mxGeometry>
        </mxCell>
        <mxCell id="PwT-5W6LIvjpv7Y9TLPe-13" value="Fields might be&lt;div&gt;Region, obs_value, timestamp/year&lt;/div&gt;" style="rounded=0;whiteSpace=wrap;html=1;" parent="1" vertex="1">
          <mxGeometry x="540" y="190" width="120" height="60" as="geometry" />
        </mxCell>
        <mxCell id="PwT-5W6LIvjpv7Y9TLPe-14" value="Wide DB with many fields" style="rounded=0;whiteSpace=wrap;html=1;" parent="1" vertex="1">
          <mxGeometry x="290" y="280" width="120" height="60" as="geometry" />
        </mxCell>
        <mxCell id="PwT-5W6LIvjpv7Y9TLPe-16" style="edgeStyle=orthogonalEdgeStyle;rounded=0;orthogonalLoop=1;jettySize=auto;html=1;" parent="1" source="PwT-5W6LIvjpv7Y9TLPe-15" target="PwT-5W6LIvjpv7Y9TLPe-1" edge="1">
          <mxGeometry relative="1" as="geometry" />
        </mxCell>
        <mxCell id="PwT-5W6LIvjpv7Y9TLPe-15" value="Data contract&lt;div&gt;we expect the data to be clean&lt;/div&gt;" style="rounded=0;whiteSpace=wrap;html=1;" parent="1" vertex="1">
          <mxGeometry x="10" y="80" width="120" height="60" as="geometry" />
        </mxCell>
        <mxCell id="PwT-5W6LIvjpv7Y9TLPe-18" value="The APIs could run on a task schedule and many of the setup processes could be scripted to reproduce results in a lab machine&amp;nbsp;" style="text;html=1;align=center;verticalAlign=middle;whiteSpace=wrap;rounded=0;labelBackgroundColor=default;" parent="1" vertex="1">
          <mxGeometry x="100" y="190" width="200" height="60" as="geometry" />
        </mxCell>
      </root>
    </mxGraphModel>
  </diagram>
</mxfile>
